<svg id="outline" xmlns="http://www.w3.org/2000/svg" viewBox="0 0 2331 1086.9"><defs><style>.cls-1,.cls-3{fill:#f0ebe9;}.cls-1,.cls-2,.cls-3,.cls-4{stroke:#f8f7f1;stroke-miterlimit:10;}.cls-1,.cls-2,.cls-4{stroke-width:5px;}.cls-2{fill:#ecece8;}.cls-3{stroke-width:4px;}.cls-4{fill:#e4e3de;}.cls-5{fill:#f2efe9;}</style></defs><rect class="cls-1" x="2.5" y="2.5" width="224.5" height="126.5"/><rect class="cls-2" x="228.5" y="2.5" width="244" height="126.01"/><rect class="cls-3" x="2" y="129.5" width="224.5" height="138"/><rect class="cls-4" x="228.5" y="129.5" width="244" height="138"/><rect class="cls-4" x="2.5" y="267.22" width="225" height="138"/><rect class="cls-2" x="228.43" y="267.72" width="244" height="138"/><rect class="cls-2" x="2.5" y="405.5" width="226" height="138"/><rect class="cls-4" x="228.43" y="405.72" width="244" height="138"/><rect class="cls-4" x="2.5" y="545.5" width="234" height="138"/><rect class="cls-4" x="228.43" y="544.72" width="244" height="138"/><rect class="cls-2" x="2.5" y="682.72" width="227.93" height="138"/><rect class="cls-1" x="228.43" y="682.72" width="244" height="138"/><rect class="cls-4" x="2.5" y="820.22" width="227.43" height="138"/><rect class="cls-4" x="228.43" y="821.72" width="244" height="138"/><rect class="cls-4" x="2.5" y="959.72" width="227.93" height="122.78"/><rect class="cls-2" x="228.43" y="959.72" width="244" height="122.78"/><rect class="cls-4" x="471.82" y="2.5" width="244" height="127.16"/><rect class="cls-2" x="716.32" y="2.5" width="244" height="126.66"/><rect class="cls-4" x="472.32" y="130.16" width="244" height="138"/><rect class="cls-4" x="716.32" y="130.16" width="244" height="138"/><rect class="cls-4" x="471.75" y="267.88" width="244" height="138"/><rect class="cls-1" x="716.25" y="268.38" width="244" height="138"/><rect class="cls-1" x="472.25" y="406.38" width="244" height="138"/><rect class="cls-4" x="716.25" y="406.38" width="244" height="138"/><rect class="cls-2" x="471.75" y="544.88" width="244" height="138"/><rect class="cls-4" x="716.25" y="545.38" width="244" height="138"/><rect class="cls-4" x="472.25" y="683.38" width="244" height="138"/><rect class="cls-1" x="716.25" y="683.38" width="244" height="138"/><rect class="cls-4" x="471.75" y="821.88" width="244" height="138"/><rect class="cls-4" x="716.25" y="822.38" width="244" height="138"/><rect class="cls-2" x="472.25" y="960.38" width="244" height="122.12"/><rect class="cls-4" x="716.25" y="960.38" width="244" height="122.12"/><rect class="cls-1" x="960.82" y="2.5" width="244" height="127.16"/><rect class="cls-4" x="1205.32" y="2.5" width="244" height="127.66"/><rect class="cls-4" x="961.32" y="130.16" width="244" height="138"/><rect class="cls-2" x="1205.32" y="130.16" width="244" height="138"/><rect class="cls-4" x="960.75" y="267.88" width="244" height="138"/><rect class="cls-1" x="1205.25" y="268.38" width="244" height="138"/><rect class="cls-2" x="961.25" y="406.38" width="244" height="138"/><rect class="cls-4" x="1205.25" y="406.38" width="244" height="138"/><rect class="cls-4" x="960.75" y="544.88" width="244" height="138"/><rect class="cls-1" x="1205.25" y="545.38" width="244" height="138"/><rect class="cls-4" x="961.25" y="683.38" width="244" height="138"/><rect class="cls-2" x="1205.25" y="683.38" width="244" height="138"/><rect class="cls-2" x="960.75" y="821.88" width="244" height="138"/><rect class="cls-4" x="1205.25" y="822.38" width="244" height="138"/><rect class="cls-1" x="961.25" y="960.38" width="244" height="122.12"/><rect class="cls-4" x="1205.25" y="960.38" width="244" height="122.12"/><rect class="cls-4" x="1449.11" y="2.5" width="244" height="125.32"/><rect class="cls-1" x="1693.61" y="2.5" width="244" height="126.82"/><rect class="cls-4" x="1449.61" y="129.31" width="244" height="138"/><rect class="cls-4" x="1693.61" y="129.31" width="244" height="138"/><rect class="cls-2" x="1449.04" y="267.03" width="244" height="138"/><rect class="cls-4" x="1693.54" y="267.53" width="244" height="138"/><rect class="cls-4" x="1449.54" y="405.53" width="244" height="138"/><rect class="cls-1" x="1693.54" y="405.53" width="244" height="138"/><rect class="cls-2" x="1449.04" y="544.03" width="244" height="138"/><rect class="cls-4" x="1693.54" y="544.53" width="244" height="138"/><rect class="cls-4" x="1449.54" y="682.53" width="244" height="138"/><rect class="cls-1" x="1693.54" y="682.53" width="244" height="138"/><rect class="cls-1" x="1449.04" y="821.03" width="244" height="138"/><rect class="cls-2" x="1693.54" y="821.53" width="244" height="138"/><rect class="cls-4" x="1449.54" y="959.53" width="244" height="122.97"/><rect class="cls-4" x="1693.54" y="959.53" width="244" height="122.97"/><path class="cls-5" d="M-70.86,124.15h9.18a1.52,1.52,0,0,0,1.5-1.5,1.53,1.53,0,0,0-1.5-1.5h-9.18a1.51,1.51,0,0,0-1.5,1.5,1.52,1.52,0,0,0,1.5,1.5Z" transform="translate(123 2)"/><rect class="cls-1" x="1938.38" y="4.4" width="224.5" height="126.5"/><rect class="cls-2" x="2164.38" y="4.4" width="164.12" height="126.01"/><rect class="cls-3" x="1937.88" y="131.4" width="224.5" height="138"/><rect class="cls-4" x="2164.38" y="131.4" width="164.12" height="138"/><rect class="cls-4" x="1938.38" y="269.12" width="225" height="138"/><rect class="cls-2" x="2164.31" y="269.62" width="164.19" height="138"/><rect class="cls-2" x="1938.38" y="407.4" width="226" height="138"/><rect class="cls-4" x="2164.31" y="407.62" width="164.19" height="138"/><rect class="cls-4" x="1938.38" y="547.4" width="234" height="138"/><rect class="cls-4" x="2164.31" y="546.62" width="164.19" height="138"/><rect class="cls-2" x="1938.38" y="684.62" width="227.93" height="138"/><rect class="cls-1" x="2164.31" y="684.62" width="164.19" height="138"/><rect class="cls-4" x="1938.38" y="822.12" width="227.43" height="138"/><rect class="cls-4" x="2164.31" y="823.62" width="164.19" height="138"/><rect class="cls-4" x="1938.38" y="961.62" width="227.93" height="122.78"/><rect class="cls-2" x="2164.31" y="961.62" width="164.19" height="122.78"/></svg>