<svg xmlns="http://www.w3.org/2000/svg" viewBox="0 0 2331.34 1081"><defs><style>.cls-1,.cls-9{fill:none;}.cls-1,.cls-10,.cls-2,.cls-4,.cls-7,.cls-9{stroke:#000;}.cls-1,.cls-10,.cls-2,.cls-3,.cls-4,.cls-5,.cls-6,.cls-7,.cls-8,.cls-9{stroke-miterlimit:10;}.cls-2{fill:#c2bfba;}.cls-3,.cls-4{fill:#f7f4ed;}.cls-3{stroke:#f7f4ed;}.cls-4,.cls-6,.cls-7,.cls-8,.cls-9{stroke-width:3px;}.cls-5{fill:#e0cac5;stroke:#e0cac5;}.cls-6{fill:#cfbab6;stroke:#937973;}.cls-7{fill:#c2c0b4;}.cls-8{fill:#b3b0a1;stroke:#666;}.cls-10{fill:#020202;opacity:0.28;}</style></defs><g id="background"><path class="cls-1" d="M160.39,960.69" transform="translate(188.97 1)"/><path class="cls-1" d="M160.39,62.45" transform="translate(188.97 1)"/><path class="cls-1" d="M187.88,119.46" transform="translate(188.97 1)"/><path class="cls-1" d="M188.39,124" transform="translate(188.97 1)"/><path class="cls-1" d="M1271.9,777.23" transform="translate(188.97 1)"/><path class="cls-1" d="M1470.39,764.2" transform="translate(188.97 1)"/><path class="cls-1" d="M1471.59,766.58" transform="translate(188.97 1)"/><path class="cls-1" d="M1844.62,862.54" transform="translate(188.97 1)"/><path class="cls-1" d="M1832.5,870.5" transform="translate(188.97 1)"/><path class="cls-1" d="M1711.5,880.5" transform="translate(188.97 1)"/><path class="cls-1" d="M1695.5,903.5" transform="translate(188.97 1)"/><path class="cls-1" d="M1709.5,887.5" transform="translate(188.97 1)"/><path class="cls-1" d="M1711.5,897.5" transform="translate(188.97 1)"/><path class="cls-1" d="M1710.5,880.5" transform="translate(188.97 1)"/><path class="cls-1" d="M1735.5,890.5" transform="translate(188.97 1)"/><path class="cls-1" d="M1697.5,869.5" transform="translate(188.97 1)"/><path class="cls-1" d="M1767.5,851.5" transform="translate(188.97 1)"/><path class="cls-1" d="M1843.5,868.5" transform="translate(188.97 1)"/><path class="cls-1" d="M1704.5,858.5" transform="translate(188.97 1)"/><path class="cls-1" d="M1677.5,880.5" transform="translate(188.97 1)"/><path class="cls-1" d="M1694.5,868.5" transform="translate(188.97 1)"/><path class="cls-1" d="M1701.5,867.5" transform="translate(188.97 1)"/><path class="cls-1" d="M1009.44,123.11" transform="translate(188.97 1)"/><path class="cls-1" d="M787.5,810.5" transform="translate(188.97 1)"/><path class="cls-2" d="M1827.5,850.5" transform="translate(188.97 1)"/><path class="cls-3" d="M586.5,404.5" transform="translate(188.97 1)"/><path class="cls-4" d="M620.5,684.58" transform="translate(188.97 1)"/><rect class="cls-5" x="1.47" y="0.5" width="2329" height="1080"/></g><g id="outline"><path class="cls-6" d="M2142,777.23a2913.19,2913.19,0,0,1-334.15,64.27,3077.72,3077.72,0,0,1-336.26,26" transform="translate(188.97 1)"/><path class="cls-6" d="M279.28,473.48a439.87,439.87,0,0,0,53.22,30A443.89,443.89,0,0,0,447.91,540" transform="translate(188.97 1)"/><path class="cls-6" d="M182,642.5a943,943,0,0,0,159-23,929.13,929.13,0,0,0,169.52-57.17" transform="translate(188.97 1)"/><path class="cls-6" d="M2142,454.59q-53.17.62-109.43,0c-127.74-1.4-245.3-7.75-351-16.68-31.09-3.93-65.22-9.1-101.35-16-52.36-10-97-21.24-133.67-32" transform="translate(188.97 1)"/><path class="cls-7" d="M366.5,175.5v46.57l11,40.43,15,371V936.65l14.17,24L583.5,916.5l272-13h215l201.5,7,138.59,7,113,9-29-174-4-111,3-247,13-109,17-110L1470.39,164,1054.5,182.5l-291,2-203.37-7.15L393.5,171.5Z" transform="translate(188.97 1)"/><path class="cls-8" d="M560.13,177.35A69.24,69.24,0,0,0,604.5,208.5l116.06,20" transform="translate(188.97 1)"/><path class="cls-8" d="M366.18,203.08A759.21,759.21,0,0,1,435.5,254.5a760.9,760.9,0,0,1,65,61,317.45,317.45,0,0,0,119.18,87.08" transform="translate(188.97 1)"/><path class="cls-8" d="M1492.45,700.35a247.37,247.37,0,0,1-50,7.31,259.16,259.16,0,0,1-33-.62c-48.31-4.17-116.61-13.59-191-36.44-54.78-16.82-97.32-36.15-128.3-52.6" transform="translate(188.97 1)"/><path class="cls-8" d="M1501.5,326.5c-31.1,5.51-64.5,10.33-100,14-39,4-75.74,6.17-110,7" transform="translate(188.97 1)"/><path class="cls-8" d="M1496.5,373.5a173.23,173.23,0,0,1-32,17c-19,7.66-35.81,10.46-51.42,12.08-32.22,3.35-91.31,5-167,1.92" transform="translate(188.97 1)"/><path class="cls-8" d="M1332.71,913.57A300.92,300.92,0,0,0,1224.5,857.5a255.7,255.7,0,0,1-152-122" transform="translate(188.97 1)"/><path class="cls-8" d="M1506.5,285.5a393.9,393.9,0,0,0-183-26c-21.36,3.49-44.12,8.05-68,14a875.66,875.66,0,0,0-94,29.33" transform="translate(188.97 1)"/><path class="cls-8" d="M401.61,228.5a538.48,538.48,0,0,1,19.89,87,540.23,540.23,0,0,1,3,127q-5.5,73-11,146" transform="translate(188.97 1)"/><path class="cls-8" d="M547.5,925.5A448.46,448.46,0,0,0,560.13,787a210.16,210.16,0,0,0-40-102.43" transform="translate(188.97 1)"/><path class="cls-8" d="M918.74,684.58A210.48,210.48,0,0,0,960,764.2l170.34,141.38" transform="translate(188.97 1)"/><path class="cls-9" d="M1335.5,792.5" transform="translate(188.97 1)"/><path d="M365.21,199.55v5.72a1.5,1.5,0,1,0,3,0v-5.72a1.5,1.5,0,0,0-3,0Z" transform="translate(188.97 1)"/><path d="M557.63,178.72h6.59a1.5,1.5,0,0,0,0-3h-6.59a1.5,1.5,0,0,0,0,3Z" transform="translate(188.97 1)"/><path d="M547,927.08a13.39,13.39,0,0,0,3.25-.65,1.5,1.5,0,1,0-.8-2.89,11.6,11.6,0,0,1-2.26.53l.4-.05-.59.06a1.54,1.54,0,0,0-1.06.44,1.5,1.5,0,0,0,0,2.12,1.47,1.47,0,0,0,1.06.44Z" transform="translate(188.97 1)"/><path d="M1127.09,906.74a1.5,1.5,0,0,0,0-3,1.5,1.5,0,0,0,0,3Z" transform="translate(188.97 1)"/><path d="M1128.46,906.74h2a1.5,1.5,0,0,0,1.06-.44,1,1,0,0,0,.31-.48,1.06,1.06,0,0,0,.13-.58,1.47,1.47,0,0,0-.44-1.06,1.54,1.54,0,0,0-1.06-.44h-2a1.54,1.54,0,0,0-1.06.44,1.11,1.11,0,0,0-.31.49,1,1,0,0,0-.13.57,1.46,1.46,0,0,0,.44,1.06,1.54,1.54,0,0,0,1.06.44Z" transform="translate(188.97 1)"/><path d="M1328.72,914.59h6.14a1.5,1.5,0,0,0,0-3h-6.14a1.5,1.5,0,0,0,0,3Z" transform="translate(188.97 1)"/><path d="M1491,697.73l-.17,4.95a1.5,1.5,0,0,0,3,0l.17-4.95a1.5,1.5,0,0,0-1.5-1.5,1.54,1.54,0,0,0-1.5,1.5Z" transform="translate(188.97 1)"/><path d="M1501.74,327.61a1.5,1.5,0,0,0,0-3,1.5,1.5,0,0,0,0,3Z" transform="translate(188.97 1)"/><path d="M1501.47,329.19a1.5,1.5,0,0,0,0-3,1.5,1.5,0,0,0,0,3Z" transform="translate(188.97 1)"/><path d="M1496.12,374.83a1.5,1.5,0,0,0,0-3,1.5,1.5,0,0,0,0,3Z" transform="translate(188.97 1)"/><path d="M1495.88,376.54a1.5,1.5,0,0,0,0-3,1.5,1.5,0,0,0,0,3Z" transform="translate(188.97 1)"/><path d="M1495.63,378.13a1.5,1.5,0,0,0,0-3,1.5,1.5,0,0,0,0,3Z" transform="translate(188.97 1)"/><path d="M1497,377l.61-3.28a1.62,1.62,0,0,0-.15-1.16,1.52,1.52,0,0,0-.9-.69,1.54,1.54,0,0,0-1.15.15,1.51,1.51,0,0,0-.69.9l-.61,3.28a1.62,1.62,0,0,0,.15,1.16,1.56,1.56,0,0,0,.9.69,1.54,1.54,0,0,0,1.15-.16,1.47,1.47,0,0,0,.69-.89Z" transform="translate(188.97 1)"/><path d="M1500,326l-.2,2a1.06,1.06,0,0,0,.13.58,1.36,1.36,0,0,0,.79.79,1.06,1.06,0,0,0,.58.13,1.5,1.5,0,0,0,1.06-.44l.23-.3a1.45,1.45,0,0,0,.21-.76l.2-2a1.06,1.06,0,0,0-.13-.58,1.36,1.36,0,0,0-.79-.79,1.06,1.06,0,0,0-.58-.13,1.46,1.46,0,0,0-1.06.44l-.23.3a1.45,1.45,0,0,0-.21.76Z" transform="translate(188.97 1)"/><path d="M1505.33,283.23c-.14,1-.33,2.1-.55,3.14a1.5,1.5,0,0,0,1,1.85,1.54,1.54,0,0,0,1.15-.16,1.47,1.47,0,0,0,.69-.89c.23-1,.41-2.09.56-3.14a1.73,1.73,0,0,0-.16-1.16,1.5,1.5,0,0,0-2-.54,1.45,1.45,0,0,0-.69.9Z" transform="translate(188.97 1)"/><path class="cls-6" d="M50.81.5a201.35,201.35,0,0,0,51.69,36,202.7,202.7,0,0,0,81,20l120.26,6" transform="translate(188.97 1)"/><path class="cls-6" d="M-187,177c40.71-25.85,77.41-46.53,106.83-62.21C-19,82.22,9.32,72,42.76,66.57a326.41,326.41,0,0,1,54.29-4.11" transform="translate(188.97 1)"/><path class="cls-6" d="M-188,611-11.5,461.5a937.54,937.54,0,0,0,93-119A937.28,937.28,0,0,0,134.13,252" transform="translate(188.97 1)"/><path class="cls-6" d="M246.64,202.41A902.29,902.29,0,0,1,133.9,338.64,1046.66,1046.66,0,0,1,0,451" transform="translate(188.97 1)"/><path class="cls-6" d="M-188,905.33A851.28,851.28,0,0,1-86.77,892.47a893.5,893.5,0,0,1,143.89,2L279.28,925" transform="translate(188.97 1)"/><path class="cls-6" d="M2142,106l-131.54,20.67a1937,1937,0,0,1-267.85,18.83c-76.63.13-143.07-4.18-196.11-9.41" transform="translate(188.97 1)"/><path class="cls-6" d="M1720,441a1893.27,1893.27,0,0,0,218.16,44.81c76.41,11.19,145.83,17,203.84,19.93" transform="translate(188.97 1)"/><path class="cls-6" d="M1705,1078a1271.35,1271.35,0,0,1-136.22-20.37c-34.74-7.15-67.14-15.33-97.07-24a224.06,224.06,0,0,1-41.15-15.79,221,221,0,0,1-34.06-21.15" transform="translate(188.97 1)"/></g><g id="darkness"><rect class="cls-10" x="1.47" y="0.5" width="2327" height="1080"/></g></svg>