<svg xmlns="http://www.w3.org/2000/svg" xmlns:xlink="http://www.w3.org/1999/xlink" viewBox="0 0 2330 1081"><defs><style>.cls-1,.cls-4{fill:#f7f4ed;}.cls-1{stroke:#f7f4ed;}.cls-1,.cls-10,.cls-12,.cls-13,.cls-14,.cls-2,.cls-3,.cls-4,.cls-5,.cls-6,.cls-7,.cls-8,.cls-9{stroke-miterlimit:10;}.cls-10,.cls-2{fill:none;}.cls-12,.cls-13,.cls-14,.cls-2,.cls-3,.cls-4,.cls-5,.cls-6,.cls-7,.cls-8,.cls-9{stroke:#000;}.cls-3{fill:#c2bfba;}.cls-4{stroke-width:3px;}.cls-5{fill:#f9f8f7;}.cls-10,.cls-5,.cls-9{stroke-width:2px;}.cls-6{fill:#999;}.cls-7{fill:#a38b5a;}.cls-8{fill:#cfcac1;}.cls-10{stroke:#75706c;}.cls-11{fill:url(#radial-gradient);}.cls-12{fill:#5a6d8e;}.cls-13{fill:#4e6484;}.cls-14{fill:#63769e;}</style><radialGradient id="radial-gradient" cx="357" cy="551" r="90" gradientUnits="userSpaceOnUse"><stop offset="0" stop-color="#fff93c"/><stop offset="0.22" stop-color="#fff156" stop-opacity="0.76"/><stop offset="0.6" stop-color="#ffe483" stop-opacity="0.36"/><stop offset="0.87" stop-color="#ffdc9f" stop-opacity="0.1"/><stop offset="1" stop-color="#ffd9aa" stop-opacity="0"/></radialGradient></defs><g id="background"><rect class="cls-1" x="0.5" y="0.5" width="537" height="1080"/><path class="cls-2" d="M77.39,949.69" transform="translate(255 1)"/><path class="cls-2" d="M160.39,62.45" transform="translate(255 1)"/><path class="cls-2" d="M104.88,108.46" transform="translate(255 1)"/><path class="cls-2" d="M105.39,113" transform="translate(255 1)"/><path class="cls-2" d="M1188.9,766.23" transform="translate(255 1)"/><path class="cls-2" d="M1387.39,753.2" transform="translate(255 1)"/><path class="cls-2" d="M1388.59,755.58" transform="translate(255 1)"/><path class="cls-2" d="M1761.62,851.54" transform="translate(255 1)"/><path class="cls-2" d="M1749.5,859.5" transform="translate(255 1)"/><path class="cls-2" d="M1628.5,869.5" transform="translate(255 1)"/><path class="cls-2" d="M1612.5,892.5" transform="translate(255 1)"/><path class="cls-2" d="M1626.5,876.5" transform="translate(255 1)"/><path class="cls-2" d="M1628.5,886.5" transform="translate(255 1)"/><path class="cls-2" d="M1627.5,869.5" transform="translate(255 1)"/><path class="cls-2" d="M1652.5,879.5" transform="translate(255 1)"/><path class="cls-2" d="M1614.5,858.5" transform="translate(255 1)"/><path class="cls-2" d="M1684.5,840.5" transform="translate(255 1)"/><path class="cls-2" d="M1760.5,857.5" transform="translate(255 1)"/><path class="cls-2" d="M1621.5,847.5" transform="translate(255 1)"/><path class="cls-2" d="M1594.5,869.5" transform="translate(255 1)"/><path class="cls-2" d="M1611.5,857.5" transform="translate(255 1)"/><path class="cls-2" d="M1618.5,856.5" transform="translate(255 1)"/><path class="cls-2" d="M926.44,112.11" transform="translate(255 1)"/><path class="cls-2" d="M704.5,799.5" transform="translate(255 1)"/><path class="cls-3" d="M1744.5,839.5" transform="translate(255 1)"/><path class="cls-1" d="M503.5,393.5" transform="translate(255 1)"/><path class="cls-4" d="M537.5,673.58" transform="translate(255 1)"/><rect class="cls-1" x="1443.5" y="0.5" width="886" height="1080"/></g><g id="bg"><rect class="cls-1" x="133.5" y="0.5" width="446" height="1080"/><rect class="cls-1" x="1421.5" y="0.5" width="754" height="1080"/><rect class="cls-1" x="562.5" y="0.5" width="865" height="45"/><rect class="cls-1" x="568.5" y="967.5" width="865" height="113"/><path class="cls-5" d="M104,983" transform="translate(255 1)"/><path class="cls-5" d="M98,1031" transform="translate(255 1)"/></g><g id="window"><polygon class="cls-6" points="1421.64 96.91 1421.64 71.27 600.59 71.59 604.52 920.23 1421.64 920.6 604.01 920.6 572.59 946.52 572.59 965.86 1421.64 967.02 1421.64 946.19 1421.64 894.69 620.67 894.69 620.67 96.91 1421.64 96.91"/><polygon class="cls-7" points="604.01 920.6 572.59 946.52 1421.64 946.19 1421.64 920.6 604.01 920.6"/><polygon class="cls-7" points="572.59 965.86 1421.64 967.02 1421.64 946.19 572.59 946.52 572.59 965.86"/><polygon class="cls-8" points="604.01 920.6 581.28 939.35 579.74 45.22 600.59 71.59 604.01 920.6"/><polygon class="cls-8" points="1421.64 71.27 600.59 71.59 579.74 45.22 1421.7 45.65 1421.64 71.27"/><rect class="cls-2" x="620.22" y="96.76" width="800.97" height="797.78"/></g><g id="lamp"><rect class="cls-9" x="344.67" y="1006.03" width="20" height="73.97"/><path class="cls-5" d="M204.17,1005.53a772.46,772.46,0,0,1-200,0v-641a377.11,377.11,0,0,1,200,0Z" transform="translate(255 1)"/><path class="cls-10" d="M4.17,385.17c22-.75,45.73-.61,70.83.83a778.72,778.72,0,0,1,129.17,18.39" transform="translate(255 1)"/><path class="cls-10" d="M4.41,440.54c24.22-.75,50.52-.45,78.59,1.46a795.08,795.08,0,0,1,121.41,17.77" transform="translate(255 1)"/><path class="cls-10" d="M4.54,660.73c21.28-.92,44.17-1,68.46.27a727.12,727.12,0,0,1,131.54,19" transform="translate(255 1)"/><path class="cls-10" d="M3.65,715.49a721,721,0,0,1,200,19.23" transform="translate(255 1)"/><path class="cls-10" d="M3.9,770.87c22.75-.17,46.83.44,72.1,2.13a975.89,975.89,0,0,1,127.9,17.09" transform="translate(255 1)"/><path class="cls-10" d="M3.9,825.87a667.11,667.11,0,0,1,200,19.22" transform="translate(255 1)"/><path class="cls-10" d="M4.65,880.49a665.22,665.22,0,0,1,200,19.23" transform="translate(255 1)"/><path class="cls-10" d="M4.9,935.87a634.73,634.73,0,0,1,200,19.22" transform="translate(255 1)"/><path class="cls-10" d="M4.9,990.87c19.17-.76,39.58-.82,61.1.13a730.19,730.19,0,0,1,123,16" transform="translate(255 1)"/><circle class="cls-11" cx="357" cy="551" r="90"/><path class="cls-10" d="M4.29,550.36A585.53,585.53,0,0,1,148,557c20.14,3.46,38.93,7.78,56.29,12.58" transform="translate(255 1)"/><path class="cls-10" d="M4.41,495.54c22.69-.51,47-.15,72.59,1.46a850.17,850.17,0,0,1,127.41,17.77" transform="translate(255 1)"/><path class="cls-10" d="M4.54,605.73A630.09,630.09,0,0,1,72,605a632.75,632.75,0,0,1,132.54,20" transform="translate(255 1)"/></g><g id="correction"><path d="M203.88,900.2a.75.75,0,0,0,0-1.5.75.75,0,0,0,0,1.5Z" transform="translate(255 1)"/><path d="M203.27,898.71l.06,1.89,1.28-.53,0,0,.12.15a.43.43,0,0,1,0-.07l.08.18,0-.1,0,.2c0-.27,0-.56,0-.83l0-.89h-1.5a11.37,11.37,0,0,1-.06,2,.75.75,0,0,0,.22.53.77.77,0,0,0,.53.22.73.73,0,0,0,.53-.22l.12-.15a.72.72,0,0,0,.1-.38,11.37,11.37,0,0,0,.06-2,.79.79,0,0,0-.22-.53.75.75,0,0,0-.53-.22.76.76,0,0,0-.75.75l0,1.13c0,.44,0,1,.34,1.32a.94.94,0,0,0,.33.2.76.76,0,0,0,1-.73l-.06-1.89a.79.79,0,0,0-.22-.53A.77.77,0,0,0,204,898a.76.76,0,0,0-.75.75Z" transform="translate(255 1)"/><path d="M203.19,953.42c0,.9,0,1.81,0,2.71a.76.76,0,0,0,.55.72,1.07,1.07,0,0,0,1-.29,1.29,1.29,0,0,0,.35-.92c0-.45,0-.92,0-1.37a.75.75,0,0,0-1.5,0v1.26s0,.08,0,.11,0,0,0-.06-.06.16,0,0,0-.06,0,0l.06-.08c-.06.07,0,0,.07,0a.47.47,0,0,1,.37,0l.55.72c0-.9,0-1.81,0-2.71a.75.75,0,0,0-1.5,0Z" transform="translate(255 1)"/><path d="M189.1,1006.46l-4.34.48a36.3,36.3,0,0,0-4.27.62c-.94.22-.54,1.67.4,1.45a34.19,34.19,0,0,1,4-.59l4.17-.46a.75.75,0,0,0,0-1.5Z" transform="translate(255 1)"/><path d="M180.59,1008.8a13.84,13.84,0,0,0,2.22-.34c.73-.13,1.45-.23,2.18-.31,1.48-.15,3-.22,4.46-.29,1,0,1-1.55,0-1.5-1.49.07-3,.14-4.46.29-.75.08-1.49.18-2.24.31a15.9,15.9,0,0,1-2.16.34c-1,0-1,1.53,0,1.5Z" transform="translate(255 1)"/><path d="M3.63,989.63c0,1,0,2.1,0,3.15a.75.75,0,0,0,1.5,0c0-1,0-2.1,0-3.15a.75.75,0,0,0-1.5,0Z" transform="translate(255 1)"/><path d="M3.67,934.83a13.65,13.65,0,0,1-.11,1.57l0-.2c0,.31-.1.6-.16.9l1.45.4a.88.88,0,0,1,.07-.23l-.08.17a1.13,1.13,0,0,1,.12-.21l-1.38-.18,0,0,0-.2a.09.09,0,0,1,0,.07l0-.2,0,0,1.45.4a7.75,7.75,0,0,0,.12-1.59.75.75,0,0,0-1.5,0,6.7,6.7,0,0,1-.05,1.1l0-.2a2.93,2.93,0,0,1-.05.29.84.84,0,0,0,.08.58.77.77,0,0,0,.45.34.74.74,0,0,0,.58-.07,1,1,0,0,0,.34-.45.86.86,0,0,0,0-.55.76.76,0,0,0-1.37-.18,2,2,0,0,0-.26.63.78.78,0,0,0,.08.58A.77.77,0,0,0,4,938a.76.76,0,0,0,.92-.52,14.08,14.08,0,0,0,.29-2.67.75.75,0,0,0-1.5,0Z" transform="translate(255 1)"/><path d="M4.41,937.55a.75.75,0,0,0,0-1.5.75.75,0,0,0,0,1.5Z" transform="translate(255 1)"/><path d="M3.67,879.42l0,2.39a.75.75,0,0,0,.75.75.78.78,0,0,0,.75-.75l0-2.39a.75.75,0,0,0-1.5,0Z" transform="translate(255 1)"/><path d="M3.65,824.71l0,2.53a.75.75,0,0,0,1.5,0l0-2.53A.76.76,0,0,0,4.4,824a.77.77,0,0,0-.75.75Z" transform="translate(255 1)"/><path d="M3.67,769.74c0,1,0,2-.07,2.93a.75.75,0,0,0,1.5,0c.06-1,.08-1.95.07-2.93a.76.76,0,0,0-.75-.75.77.77,0,0,0-.75.75Z" transform="translate(255 1)"/><path d="M3.68,714.4c0,1-.08,2-.17,3a.74.74,0,0,0,.75.75.78.78,0,0,0,.75-.75c.09-1,.15-2,.17-3a.76.76,0,0,0-.75-.75.77.77,0,0,0-.75.75Z" transform="translate(255 1)"/><path d="M4,716.78a.75.75,0,0,0,0-1.5.75.75,0,0,0,0,1.5Z" transform="translate(255 1)"/><path d="M4.44,717.24a.75.75,0,0,0,0-1.5.75.75,0,0,0,0,1.5Z" transform="translate(255 1)"/><path d="M4.44,716.93a.75.75,0,0,0,0-1.5.75.75,0,0,0,0,1.5Z" transform="translate(255 1)"/><path d="M3.69,659.58v3a.75.75,0,0,0,1.5,0v-3a.76.76,0,0,0-.75-.75.77.77,0,0,0-.75.75Z" transform="translate(255 1)"/><path d="M3.7,604.66l-.11,3.78a.75.75,0,0,0,1.5,0l.11-3.78a.76.76,0,0,0-.75-.75.78.78,0,0,0-.75.75Z" transform="translate(255 1)"/><path d="M3.7,549.27,3.65,554a.75.75,0,0,0,1.5,0l0-4.72a.75.75,0,0,0-1.5,0Z" transform="translate(255 1)"/><path d="M3.66,494.55v4a.76.76,0,0,0,.75.75.77.77,0,0,0,.75-.75v-4a.75.75,0,0,0-1.5,0Z" transform="translate(255 1)"/><path d="M3.69,439.47v4.25a.75.75,0,0,0,1.5,0v-4.25a.76.76,0,0,0-.75-.75.77.77,0,0,0-.75.75Z" transform="translate(255 1)"/><path d="M3.69,384.08v4a.75.75,0,0,0,1.5,0v-4a.76.76,0,0,0-.75-.75.77.77,0,0,0-.75.75Z" transform="translate(255 1)"/><path d="M203.25,402.94v5a.75.75,0,0,0,.75.75.76.76,0,0,0,.75-.75v-5a.75.75,0,0,0-1.5,0Z" transform="translate(255 1)"/><path d="M203.33,458.14c0,1.86,0,3.72,0,5.58a.77.77,0,0,0,.75.75.75.75,0,0,0,.75-.75c-.07-1.86-.08-3.72,0-5.58a.75.75,0,0,0-1.5,0Z" transform="translate(255 1)"/><path d="M203.17,458.28v3.87a.75.75,0,0,0,1.5,0v-3.87a.75.75,0,0,0-1.5,0Z" transform="translate(255 1)"/><path d="M203.18,513c0,1.34,0,2.68,0,4a.75.75,0,0,0,1.5,0c-.06-1.34-.08-2.68,0-4a.75.75,0,0,0-1.5,0Z" transform="translate(255 1)"/><path d="M203.15,568c0,1.69,0,3.38,0,5.07a.75.75,0,0,0,1.5,0c0-1.69,0-3.38,0-5.07a.75.75,0,0,0-1.5,0Z" transform="translate(255 1)"/><path d="M203.21,623.44c0,1.6,0,3.21,0,4.81a.75.75,0,0,0,1.5,0c0-1.6,0-3.21,0-4.81a.74.74,0,0,0-.75-.75.76.76,0,0,0-.75.75Z" transform="translate(255 1)"/><path d="M203.2,678.16c0,1.46.06,2.91.06,4.37a.75.75,0,0,0,1.5,0c0-1.46,0-2.91-.06-4.37a.75.75,0,0,0-.75-.75.76.76,0,0,0-.75.75Z" transform="translate(255 1)"/><path d="M203.23,733.32a57.62,57.62,0,0,0,.08,6,.78.78,0,0,0,.75.75.75.75,0,0,0,.75-.75,57.62,57.62,0,0,1-.08-6,.75.75,0,0,0-1.5,0Z" transform="translate(255 1)"/><path d="M203.19,788.51l0,5.55a.75.75,0,0,0,1.5,0l0-5.55a.75.75,0,0,0-1.5,0Z" transform="translate(255 1)"/><path d="M203.18,844c.06,1.21.17,2.42.33,3.62a.78.78,0,0,0,.75.75c.36,0,.8-.34.75-.75-.16-1.2-.27-2.41-.33-3.62a.75.75,0,0,0-1.5,0Z" transform="translate(255 1)"/><path d="M204.64,846v-2.48a.75.75,0,0,0-1.5,0V846a.76.76,0,0,0,.75.75.77.77,0,0,0,.75-.75Z" transform="translate(255 1)"/><line class="cls-2" x1="2050.5" y1="1" x2="2050.5" y2="1080"/></g><g id="sofa_trace" data-name="sofa trace"><path class="cls-12" d="M1900.5,1079.5c5.72-65.74,7.13-116.46,6-142-.42-9.59-1.6-24.5-12-37a49.84,49.84,0,0,0-17-13c-53.9.51-105.52,1-154.35,1.58-257.76,2.86-437.66,6.08-464.65,8.42-6.27.54-20.32,2.47-31,13-15.48,15.26-15,40.2-13,56q5,56.5,10,113Z" transform="translate(255 1)"/><path class="cls-13" d="M1334.5,894.5c-.11-11.29-.08-21.37,0-30,.08-7.78.16-10.78,2-14,4.76-8.35,16.77-10.35,25-11,22.42-1.77,143-3.47,308-4l-19,54Z" transform="translate(255 1)"/><path class="cls-2" d="M1359.5,850.5" transform="translate(255 1)"/><path class="cls-12" d="M1723.15,889.08l38.35-96.58c2.41-6.71,11.33-28.94,35-42a74.57,74.57,0,0,1,31-9l36-4c.91-.1,8.67-.81,14,5a16,16,0,0,1,4,9q-2,68-4,136Z" transform="translate(255 1)"/><path class="cls-14" d="M1650.5,889.5l19-54,20-51a101.22,101.22,0,0,1,9-17c5-7.55,13.62-20.69,30-29a67.54,67.54,0,0,1,25-7l92-2c3.21.24,6.55.57,10,1,2.4.3,4.74.64,7,1,1.27.17,13.41,2,17,11a14,14,0,0,1,1,4.8l-3-4.8a16.52,16.52,0,0,0-6-4,16.69,16.69,0,0,0-8-1l-36,4a74.32,74.32,0,0,0-66,51l-38.35,96.58Z" transform="translate(255 1)"/></g></svg>